<?xml version="1.0" encoding="UTF-8"?>
<!DOCTYPE svg PUBLIC "-//W3C//DTD SVG 1.1//EN" "http://www.w3.org/Graphics/SVG/1.1/DTD/svg11.dtd">
<!-- Creator: CorelDRAW 2020 (64-Bit) -->
<svg xmlns="http://www.w3.org/2000/svg" xml:space="preserve" width="210mm" height="297mm" version="1.1" style="shape-rendering:geometricPrecision; text-rendering:geometricPrecision; image-rendering:optimizeQuality; fill-rule:evenodd; clip-rule:evenodd"
viewBox="0 0 21000 29700"
 xmlns:xlink="http://www.w3.org/1999/xlink"
 xmlns:xodm="http://www.corel.com/coreldraw/odm/2003">
 <defs>
  <style type="text/css">
   <![CDATA[
    .fil0 {fill:#D4777F;fill-rule:nonzero}
   ]]>
  </style>
 </defs>
 <g id="Layer_x0020_1">
  <metadata id="CorelCorpID_0Corel-Layer"/>
  <path class="fil0" d="M16500 8057.81c1035.47,0 1875,-838.13 1875,-1873.59 0,-1035.46 -1875,-3334.22 -1875,-3334.22 0,0 -1875,2339.53 -1875,3375 0,1035.47 839.06,1832.81 1875,1832.81zm-6000 0c1035.47,0 1875,-838.13 1875,-1873.59 0,-1035.46 -1875,-3334.22 -1875,-3334.22 0,0 -1875,2339.53 -1875,3375 0,1035.47 839.06,1832.81 1875,1832.81zm7457.81 5250l42.19 -2957.81c0,-414.19 -335.81,-750 -750,-750l-1500 0c-412.5,0 -750,337.5 -750,750l0 3000 -3000 0 0 -3000c0,-414.19 -335.81,-750 -750,-750l-1500 0c-412.5,0 -750,337.5 -750,750l0 3000 -3000 0 0 -3000c0,-414.19 -335.81,-750 -750,-750l-1500 0c-414.38,0 -750,337.5 -750,750l0 2998.59c-1657.03,0 -3000,1342.97 -3000,2957.81l0 3220.31c460.03,286.03 1002.66,531.09 1500,531.09 967.5,0 2111.72,-924.84 2470.31,-1281.09 292.97,-291.52 765.94,-291.52 1058.91,0 319.22,399.85 1505.15,1281.1 2470.78,1281.1 965.63,0 2111.72,-924.84 2470.31,-1281.09 292.97,-291.52 765.94,-291.52 1058.91,0 319.22,399.84 1505.16,1281.09 2470.78,1281.09 965.62,0 2111.72,-924.84 2470.31,-1281.09 292.97,-291.52 765.94,-291.52 1058.91,0 319.22,399.84 1505.16,1281.09 2470.78,1281.09 497.34,0 1040.16,-245.02 1500,-531.09l0 -3218.91c0,-1617.19 -1345.31,-3000 -3042.19,-3000zm-1457.81 7040.63c-644.53,513.28 -1782.66,1249.69 -3000,1249.69 -1217.34,0 -2355.47,-735.94 -3000,-1249.69 -644.53,513.28 -1782.66,1249.69 -3000,1249.69 -1217.34,0 -2355.47,-735.94 -3000,-1249.69 -644.53,513.28 -1782.66,1249.69 -3000,1249.69 -528.28,0 -1035.47,-146.3 -1500,-345.8l0 4095.94c0,831.42 671.72,1501.73 1500,1501.73l18000 0c828.28,0 1500,-671.72 1500,-1500l0 -4095.94c-464.53,199.5 -971.72,345.8 -1500,345.8 -1218.75,-42.05 -2353.12,-735.8 -3000,-1251.42zm-12000 -12290.63c1035.47,0 1875,-838.13 1875,-1873.59 0,-1035.46 -1875,-3334.22 -1875,-3334.22 0,0 -1875,2339.53 -1875,3375 0,1035.47 839.53,1832.81 1875,1832.81z"/>
 </g>
</svg>
